<svg width="20" height="21" viewBox="0 0 20 21" fill="none" xmlns="http://www.w3.org/2000/svg">
<path d="M6.36408 0.0722656H13.6368C14.119 0.0722656 14.5815 0.263824 14.9225 0.604799C15.2634 0.945774 15.455 1.40824 15.455 1.89045V2.79954H4.5459V1.89045C4.5459 1.40824 4.73746 0.945774 5.07843 0.604799C5.41941 0.263824 5.88187 0.0722656 6.36408 0.0722656Z" fill="white"/>
<path d="M5.4541 14.6182H14.545V18.2545C14.545 18.7367 14.3535 19.1992 14.0125 19.5402C13.6715 19.8812 13.209 20.0727 12.7268 20.0727H7.27228C6.79007 20.0727 6.32761 19.8812 5.98663 19.5402C5.64566 19.1992 5.4541 18.7367 5.4541 18.2545V14.6182Z" fill="white"/>
<path d="M17.2727 4.61816H2.72727C2.00396 4.61816 1.31026 4.9055 0.7988 5.41696C0.287337 5.92843 0 6.62212 0 7.34544V14.6182C0 15.3415 0.287337 16.0352 0.7988 16.5466C1.31026 17.0581 2.00396 17.3454 2.72727 17.3454H3.63636V14.6182C3.39526 14.6182 3.16403 14.5224 2.99354 14.3519C2.82305 14.1814 2.72727 13.9502 2.72727 13.7091C2.72727 13.468 2.82305 13.2367 2.99354 13.0662C3.16403 12.8958 3.39526 12.8 3.63636 12.8H16.3636C16.6047 12.8 16.836 12.8958 17.0065 13.0662C17.177 13.2367 17.2727 13.468 17.2727 13.7091C17.2727 13.9502 17.177 14.1814 17.0065 14.3519C16.836 14.5224 16.6047 14.6182 16.3636 14.6182V17.3454H17.2727C17.996 17.3454 18.6897 17.0581 19.2012 16.5466C19.7127 16.0352 20 15.3415 20 14.6182V7.34544C20 6.62212 19.7127 5.92843 19.2012 5.41696C18.6897 4.9055 17.996 4.61816 17.2727 4.61816ZM4.54545 9.16362H3.63636C3.39526 9.16362 3.16403 9.06784 2.99354 8.89735C2.82305 8.72686 2.72727 8.49563 2.72727 8.25453C2.72727 8.01342 2.82305 7.78219 2.99354 7.6117C3.16403 7.44122 3.39526 7.34544 3.63636 7.34544H4.54545C4.78656 7.34544 5.01779 7.44122 5.18828 7.6117C5.35877 7.78219 5.45455 8.01342 5.45455 8.25453C5.45455 8.49563 5.35877 8.72686 5.18828 8.89735C5.01779 9.06784 4.78656 9.16362 4.54545 9.16362ZM9.09091 9.16362H8.18182C7.94071 9.16362 7.70948 9.06784 7.53899 8.89735C7.36851 8.72686 7.27273 8.49563 7.27273 8.25453C7.27273 8.01342 7.36851 7.78219 7.53899 7.6117C7.70948 7.44122 7.94071 7.34544 8.18182 7.34544H9.09091C9.33202 7.34544 9.56325 7.44122 9.73373 7.6117C9.90422 7.78219 10 8.01342 10 8.25453C10 8.49563 9.90422 8.72686 9.73373 8.89735C9.56325 9.06784 9.33202 9.16362 9.09091 9.16362Z" fill="white"/>
</svg>
