<svg width="345" height="80" viewBox="0 0 345 80" fill="none" xmlns="http://www.w3.org/2000/svg">
<path d="M28.9019 19.7748C27.89 18.9047 26.6562 18.178 25.2013 17.5916C23.7455 17.006 22.1129 16.4654 20.3019 15.9682C18.988 15.6128 17.8343 15.2941 16.8407 15.0089C15.8463 14.7252 15.0213 14.4149 14.3647 14.0771C13.7074 13.74 13.211 13.3587 12.8739 12.9317C12.5354 12.5062 12.3676 11.9732 12.3676 11.3342C12.3676 9.24024 13.9293 8.1925 17.0534 8.1925C18.1896 8.1925 19.3251 8.35187 20.462 8.67137C21.5975 8.99088 22.6452 9.36378 23.6037 9.7908C24.5622 10.2163 25.3606 10.6243 25.9996 11.0147C26.6386 11.4066 27.0115 11.6728 27.1183 11.8138L30.9516 4.57192C30.1006 4.07474 29.168 3.57833 28.1569 3.08039C27.145 2.58397 26.0538 2.14093 24.8817 1.74898C23.7097 1.35855 22.4858 1.03906 21.207 0.79047C19.929 0.543404 18.6327 0.417572 17.3196 0.417572C15.4376 0.417572 13.654 0.684467 11.968 1.21672C10.282 1.74898 8.79965 2.53974 7.52162 3.58672C6.2436 4.63369 5.23171 5.92089 4.48594 7.4475C3.74093 8.97412 3.36804 10.7318 3.36804 12.719C3.36804 14.1396 3.57163 15.3818 3.98112 16.4478C4.38832 17.5116 5.00979 18.4526 5.84401 19.2692C6.67824 20.0859 7.73437 20.8058 9.01316 21.4265C10.2912 22.0472 11.7987 22.6237 13.5396 23.1567C14.8527 23.5471 16.0682 23.9025 17.1869 24.2212C18.3048 24.5415 19.2717 24.8877 20.0884 25.259C20.9051 25.6327 21.5441 26.0498 22.0054 26.5119C22.4675 26.9732 22.6978 27.5589 22.6978 28.268C22.6978 30.15 21.1544 31.091 18.0653 31.091C16.6096 31.091 15.1715 30.895 13.7516 30.5053C12.3318 30.1149 11.0446 29.6719 9.89162 29.1739C8.73712 28.6775 7.76945 28.1796 6.98937 27.6832C6.20776 27.1852 5.74642 26.8482 5.60535 26.6713L1.77051 34.2868C2.8701 35.0318 4.06881 35.6891 5.36514 36.2565C6.66071 36.8246 8.00127 37.3134 9.38529 37.7198C10.7701 38.1285 12.1892 38.4396 13.6456 38.6524C15.1006 38.8644 16.5212 38.9727 17.906 38.9727C19.7163 38.9727 21.4739 38.7675 23.1775 38.3596C24.8817 37.9524 26.3901 37.2951 27.7039 36.3892C29.0163 35.484 30.0739 34.296 30.8723 32.822C31.6715 31.3495 32.0703 29.5461 32.0703 27.4163C32.0703 25.6784 31.795 24.1861 31.2452 22.9424C30.6946 21.701 29.9138 20.6449 28.9019 19.7748Z" fill="white"/>
<path d="M68.1665 0.737347H36.376V8.40628H47.9316V38.5459H56.6643V8.40628H68.1665V0.737347Z" fill="white"/>
<path d="M77.0132 24.0623L81.5396 10.6964L85.9601 24.0623H77.0132ZM77.5988 0.738323L63.8066 38.5469H72.7528L75.6292 30.0796H87.3975L90.3265 38.5469H99.2726L85.4805 0.738323H77.5988Z" fill="white"/>
<path d="M174.757 25.6591L155.293 0.738323H139.175H128.531L115.027 18.0984L102.148 0.738323H92.1377L110.661 25.5531V38.5469H119.341V25.6591L133.854 7.42508L148.366 25.6591H174.757Z" fill="white"/>
<path d="M221.456 0.0999718V37.8818H214.165V21.7586H197.031V37.8818H189.688V0.0999718H197.031V15.3723H214.165V0.0999718H221.456Z" fill="white"/>
<path d="M301.434 37.8818V12.8718L291.696 31.4963H287.706L277.967 12.8718V37.8818H270.624V0.0999718H278.5L289.674 21.5992L300.955 0.0999718H308.777V37.8818H301.434Z" fill="white"/>
<path d="M343.417 31.4427V37.8809H317.184V0.0997658H342.939V6.53947H324.527V15.6389H340.437V21.5982H324.527V31.4427H343.417Z" fill="white"/>
<path d="M133.289 20.9893H129.321V18.3143C129.321 17.6005 129.9 17.0217 130.614 17.0217H133.289V20.9893Z" fill="white"/>
<path d="M138.019 20.9893H134.052V17.0217H136.727C137.441 17.0217 138.019 17.6005 138.019 18.3143V20.9893Z" fill="white"/>
<path d="M133.289 25.6582H129.321V21.6907H133.289V25.6582Z" fill="white"/>
<path d="M138.019 25.6582H134.052V21.6907H138.019V25.6582Z" fill="white"/>
<path d="M158.037 29.8833H151.788V31.8964H158.037V29.8833ZM158.037 38.4551V34.1909H151.789V35.8792C151.789 36.413 151.721 36.8247 151.585 37.113C151.45 37.4012 151.24 37.6475 150.957 37.8496C150.698 38.0357 150.387 38.1851 150.023 38.2926C149.66 38.4002 149.281 38.4551 148.886 38.4551H148.702V29.9908C148.702 29.5722 148.775 29.2153 148.923 28.9194C149.071 28.6228 149.275 28.3773 149.533 28.1828C149.793 27.9884 150.091 27.8443 150.43 27.7505C150.769 27.6559 151.123 27.6094 151.492 27.6094H161.161V38.4551H158.037Z" fill="white"/>
<path d="M175.007 28.086C175.007 28.5473 174.915 28.9011 174.73 29.1467C174.545 29.393 174.32 29.5661 174.055 29.666C173.79 29.7682 173.516 29.8284 173.232 29.8497C172.949 29.8711 172.702 29.8833 172.492 29.8833H170.33V36.204C170.33 37.0116 170.173 37.5896 169.859 37.9358C169.544 38.282 168.962 38.4551 168.112 38.4551H167.206V29.8833H162.455V29.5798C162.455 28.815 162.643 28.2957 163.019 28.0204C163.395 27.7474 163.928 27.6094 164.618 27.6094H175.007V28.086Z" fill="white"/>
<path d="M258.696 20.3912C258.31 21.1354 257.809 21.808 257.222 22.3944L247.934 31.683C247.448 32.1695 246.675 32.5126 245.988 32.5126C245.301 32.5126 244.557 32.1832 244.071 31.7257C244.042 31.6967 234.796 22.4523 234.796 22.4523C233.68 21.336 232.922 19.9901 232.564 18.4734C232.392 17.8008 232.321 17.1282 232.321 16.4702C232.349 14.4807 232.993 12.7062 234.253 11.2033C235.541 9.64386 237.215 8.67008 239.218 8.31244C239.605 8.24076 240.006 8.21255 240.407 8.19807L240.707 8.18357C241.781 8.18357 242.84 8.39862 243.841 8.81345C244.629 9.12838 245.344 9.57218 245.988 10.1014C246.245 9.88711 246.503 9.70104 246.775 9.52871C247.777 8.87063 248.907 8.4558 250.095 8.26974C250.496 8.21255 250.897 8.18357 251.297 8.18357C252.414 8.18357 253.501 8.39861 254.517 8.82792C255.605 9.27172 256.55 9.9298 257.351 10.7739C258.596 12.0909 259.341 13.6503 259.569 15.4255C259.813 17.1709 259.512 18.831 258.696 20.3912ZM263.097 12.3112C262.209 10.0061 260.969 7.94795 259.372 6.13767C257.776 4.32967 255.85 2.86633 253.598 1.74768C251.345 0.63055 248.853 0.0723724 246.122 0.0723724C243.461 0.0723724 240.995 0.596233 238.725 1.64245C236.454 2.68866 234.495 4.09937 232.845 5.87305C231.196 7.64674 229.9 9.68656 228.961 11.9917C228.021 14.2984 227.551 16.7111 227.551 19.2283C227.551 21.6417 227.994 24.0003 228.881 26.3055C229.767 28.6122 231.017 30.6604 232.632 32.4524C234.247 34.2444 236.179 35.681 238.432 36.7623C240.685 37.8443 243.195 38.3857 245.962 38.3857C248.623 38.3857 251.088 37.8626 253.358 36.8164C255.628 35.7694 257.58 34.3679 259.212 32.6117C260.844 30.8563 262.121 28.8341 263.043 26.5457C263.965 24.2573 264.428 21.8545 264.428 19.3351C264.428 16.9597 263.983 14.6179 263.097 12.3112Z" fill="white"/>
<path d="M256.349 19.1748C256.091 19.6758 255.762 20.1341 255.362 20.5344C252.428 23.4542 249.508 26.3877 246.575 29.3068C246.417 29.4791 246.245 29.6507 246.074 29.8078C245.988 29.9084 245.973 29.8939 245.888 29.8078L245.845 29.7651C242.782 26.7027 239.719 23.654 236.672 20.5916C235.898 19.8192 235.383 18.9171 235.126 17.8579C235.011 17.4149 234.954 16.9711 234.968 16.5273C234.983 15.1531 235.397 13.9369 236.27 12.8922C237.172 11.8193 238.303 11.1604 239.677 10.9027C239.948 10.86 240.22 10.8455 240.493 10.8318C241.308 10.8028 242.095 10.9462 242.839 11.2466C243.512 11.5326 244.127 11.9192 244.642 12.4484C245.044 12.8495 245.444 13.2498 245.845 13.6365C245.873 13.6647 245.902 13.6936 245.916 13.7226C245.959 13.7653 246.002 13.7653 246.045 13.7226C246.074 13.6936 246.102 13.6647 246.116 13.6365C246.474 13.2925 246.832 12.9349 247.19 12.5773C247.505 12.2623 247.834 11.9764 248.206 11.7476C248.907 11.2893 249.665 11.0034 250.496 10.8745C250.753 10.8455 251.025 10.8173 251.297 10.8173C252.056 10.8173 252.8 10.9599 253.501 11.2611C254.245 11.5616 254.89 12.0054 255.433 12.5773C256.277 13.4794 256.793 14.5378 256.964 15.7685C257.122 16.9711 256.922 18.1012 256.349 19.1748Z" fill="white"/>
<path d="M339.124 79.3262H5.5582C2.48819 79.3262 0 76.8372 0 73.7672V58.4919C0 55.4219 2.48819 52.9329 5.5582 52.9329H339.124C342.194 52.9329 344.683 55.4219 344.683 58.4919V73.7672C344.683 76.8372 342.194 79.3262 339.124 79.3262Z" fill="white"/>
<path d="M31.1152 59.7994H34.141V64.8413H43.5943V59.7994H46.6437V72.8076H43.5943V67.2113H34.141V72.8076H31.1152V59.7994Z" fill="#00A0D1"/>
<path d="M83.6782 62.1183H73.6957V70.3614H83.6782V62.1183ZM70.8339 61.3626C70.9437 60.9592 71.1252 60.6435 71.3768 60.417C71.6284 60.1898 71.9601 60.0304 72.3719 59.9381C72.7837 59.8459 73.2931 59.7994 73.897 59.7994H83.4769C84.0831 59.7994 84.5902 59.8459 85.002 59.9381C85.4137 60.0304 85.7455 60.1898 85.9994 60.417C86.251 60.6435 86.4317 60.9592 86.54 61.3626C86.6498 61.766 86.704 62.2692 86.704 62.8755V69.7315C86.704 70.337 86.6498 70.841 86.54 71.2444C86.4317 71.6478 86.251 71.9635 85.9994 72.19C85.7455 72.4172 85.4137 72.5766 85.002 72.6688C84.5902 72.7619 84.0831 72.8076 83.4769 72.8076H73.897C73.2931 72.8076 72.7837 72.7619 72.3719 72.6688C71.9601 72.5766 71.6284 72.4172 71.3768 72.19C71.1252 71.9635 70.9437 71.6478 70.8339 71.2444C70.7241 70.841 70.6699 70.337 70.6699 69.7315V62.8755C70.6699 62.2692 70.7241 61.766 70.8339 61.3626Z" fill="#00A0D1"/>
<path d="M110.705 59.7994H113.149L119.277 67.6642L125.276 59.7994H127.695V72.8076H124.897V64.7658C124.897 64.6316 124.907 64.4509 124.924 64.2236C124.94 63.9964 124.964 63.715 124.997 63.3795C124.863 63.6647 124.733 63.9255 124.609 64.1603C124.481 64.3967 124.36 64.5897 124.243 64.7406L119.352 71.2444H118.747L113.856 64.7155C113.705 64.5142 113.561 64.3029 113.427 64.0849C113.292 63.8668 113.175 63.6311 113.074 63.3795C113.125 63.9171 113.149 64.38 113.149 64.7658V72.8076H110.705V59.7994Z" fill="#00A0D1"/>
<path d="M151.719 59.7994H165.029V62.0176H154.745V64.9168H160.743V67.135H154.745V70.3621H165.156V72.8076H151.719V59.7994Z" fill="#00A0D1"/>
<path d="M191.149 62.1183V70.3614H199.318V67.5636L202.343 68.1935V69.7315C202.343 70.3362 202.287 70.841 202.179 71.2444C202.069 71.6478 201.889 71.9627 201.637 72.1892C201.385 72.4172 201.051 72.5766 200.641 72.6688C200.229 72.7619 199.721 72.8076 199.117 72.8076H191.35C190.746 72.8076 190.238 72.7619 189.825 72.6688C189.413 72.5766 189.082 72.4172 188.83 72.1892C188.578 71.9627 188.398 71.6478 188.287 71.2444C188.177 70.841 188.123 70.3362 188.123 69.7315V62.8755C188.123 62.2692 188.177 61.766 188.287 61.3626C188.398 60.9584 188.578 60.6435 188.83 60.417C189.082 60.1898 189.413 60.0304 189.825 59.9381C190.238 59.8459 190.746 59.7994 191.35 59.7994H199.117C199.721 59.7994 200.229 59.8459 200.641 59.9381C201.051 60.0304 201.385 60.1898 201.637 60.417C201.889 60.6435 202.069 60.9584 202.179 61.3626C202.287 61.766 202.343 62.2692 202.343 62.8755V64.11L199.318 64.5889V62.1183H191.149Z" fill="#00A0D1"/>
<path d="M235.266 67.6139L232.468 62.3203L229.569 67.6139H235.266ZM231.107 59.7994H234.032L241.494 72.8076H238.09L236.528 69.9588H228.282L226.77 72.8076H223.745L231.107 59.7994Z" fill="#00A0D1"/>
<path d="M266.3 62.0428V65.6732H273.106C273.576 65.6732 273.921 65.6099 274.14 65.4841C274.358 65.3583 274.467 65.0769 274.467 64.6392V63.0768C274.467 62.6391 274.358 62.3577 274.14 62.2319C273.921 62.106 273.576 62.0428 273.106 62.0428H266.3ZM263.324 59.7994H274.467C275.475 59.7994 276.215 59.9923 276.685 60.3789C277.157 60.7655 277.392 61.4129 277.392 62.3203V65.3705C277.392 66.2779 277.157 66.9253 276.685 67.3119C276.215 67.6986 275.475 67.8915 274.467 67.8915H272.754L278.753 72.8076H274.416L269.174 67.8915H266.3V72.8076H263.324V59.7994Z" fill="#00A0D1"/>
<path d="M301.19 59.7994H314.501V62.0176H304.216V64.9168H310.215V67.135H304.216V70.3621H314.627V72.8076H301.19V59.7994Z" fill="#00A0D1"/>
</svg>
