<svg width="20" height="21" viewBox="0 0 20 21" fill="none" xmlns="http://www.w3.org/2000/svg">
<path d="M19.0286 13.5024L14.3315 11.4994C14.0892 11.3908 13.8231 11.3457 13.5585 11.3685C13.2939 11.3913 13.0395 11.4811 12.8193 11.6296L10.3055 13.3021C8.77344 12.558 7.53301 11.3246 6.78019 9.79682L8.44269 7.25299C8.59016 7.03254 8.68022 6.77874 8.7047 6.51465C8.72919 6.25055 8.68732 5.98453 8.5829 5.74072L6.56988 1.04366C6.42941 0.726493 6.19156 0.46232 5.89083 0.289445C5.59011 0.116571 5.24213 0.0439838 4.89736 0.0822103C3.54492 0.259381 2.30283 0.921645 1.40203 1.94587C0.501227 2.9701 0.00300688 4.28659 0 5.65058C0 13.6025 6.46973 20.0723 14.4217 20.0723C15.7857 20.0693 17.1022 19.571 18.1264 18.6702C19.1506 17.7694 19.8129 16.5273 19.9901 15.1749C20.0283 14.8301 19.9557 14.4822 19.7828 14.1814C19.6099 13.8807 19.3458 13.6429 19.0286 13.5024Z" fill="white"/>
</svg>
